<?xml version="1.0" standalone="no"?>
<!DOCTYPE svg PUBLIC "-//W3C//DTD SVG 20010904//EN"
 "http://www.w3.org/TR/2001/REC-SVG-20010904/DTD/svg10.dtd">
<svg version="1.0" xmlns="http://www.w3.org/2000/svg"
 width="368.000000pt" height="368.000000pt" viewBox="0 0 368.000000 368.000000"
 preserveAspectRatio="xMidYMid meet">
<metadata>
Created by potrace 1.11, written by Peter Selinger 2001-2013
</metadata>
<g transform="translate(0.000000,368.000000) scale(0.100000,-0.100000)"
fill="#000000" stroke="none">
<path d="M1600 3664 c-250 -45 -393 -88 -563 -168 -178 -83 -380 -229 -522
-378 -274 -285 -444 -631 -499 -1018 -19 -131 -19 -391 -1 -527 76 -554 403
-1042 892 -1330 170 -99 355 -171 559 -215 99 -21 134 -23 369 -23 235 0 271
2 370 23 172 37 317 88 475 168 587 297 971 894 994 1549 17 473 -115 888
-394 1240 -73 91 -257 275 -276 275 -6 0 -14 6 -17 14 -9 22 -201 146 -322
208 -129 66 -282 120 -438 155 -99 22 -140 25 -357 28 -135 2 -256 1 -270 -1z
m1130 -1864 l0 -950 -290 0 -290 0 0 950 0 950 290 0 290 0 0 -950z m-1330
398 c1 -36 1 -1268 1 -1310 l-1 -38 -288 0 -287 0 1 683 c1 375 2 683 3 685 0
1 129 2 286 2 l285 0 0 -22z m637 -437 l33 -1 -1 -455 0 -455 -292 0 -292 0 0
453 c0 349 2 453 12 457 10 4 371 4 540 1z"/>
</g>
</svg>
